<svg id="svg" version="1.1" xmlns="http://www.w3.org/2000/svg" xmlns:xlink="http://www.w3.org/1999/xlink" width="400" height="400" viewBox="0, 0, 400,400"><g id="svgg"><path id="path0" d="M143.871 9.807 C 134.505 12.997,120.037 23.743,104.018 39.406 C 13.830 127.590,13.222 270.780,102.658 359.789 C 126.946 383.960,139.895 392.071,154.478 392.248 C 169.403 392.428,171.640 390.993,199.278 363.508 L 220.041 342.860 225.060 344.474 C 264.265 357.080,324.487 343.475,355.561 314.992 C 363.552 307.667,366.095 296.420,361.865 287.109 C 358.836 280.444,318.280 240.594,312.275 238.383 C 304.099 235.373,297.559 236.327,288.672 241.824 C 269.827 253.482,248.182 252.644,230.807 239.583 C 203.666 219.181,206.122 175.601,235.407 157.953 C 251.639 148.170,274.591 148.663,288.669 159.097 C 297.098 165.343,305.687 166.320,314.309 162.014 C 318.692 159.825,355.017 124.557,359.485 118.152 C 369.458 103.859,364.558 91.216,343.686 77.388 C 308.556 54.114,267.144 46.837,224.021 56.362 L 219.527 57.355 197.849 35.800 C 174.994 13.074,172.867 11.412,163.521 8.978 C 156.938 7.263,150.548 7.533,143.871 9.807 M158.984 31.327 C 161.548 32.024,165.220 35.271,179.429 49.401 L 196.748 66.624 189.194 70.426 C 137.845 96.273,106.142 158.572,113.628 218.920 C 119.557 266.712,151.233 312.240,192.383 332.113 C 197.171 334.425,198.515 332.446,179.102 351.670 C 156.949 373.606,155.897 373.970,142.449 364.348 C 76.299 317.018,45.003 231.980,64.569 152.734 C 75.786 107.302,101.789 67.286,138.071 39.620 C 149.568 30.854,152.691 29.616,158.984 31.327 M285.156 77.220 C 299.369 80.179,316.678 86.778,326.152 92.851 C 333.593 97.620,341.406 103.464,341.406 104.260 C 341.406 104.734,332.935 113.549,322.580 123.850 L 303.755 142.578 271.213 109.766 C 253.315 91.719,238.707 76.859,238.750 76.744 C 239.562 74.588,274.220 74.943,285.156 77.220 M235.910 105.887 C 248.601 118.579,258.408 128.751,257.703 128.493 C 249.464 125.475,224.313 136.286,211.622 148.300 C 166.141 191.355,192.432 265.650,255.680 272.802 C 257.671 273.027,256.060 274.829,235.669 295.201 L 213.493 317.356 206.161 313.828 C 114.498 269.728,111.352 139.234,200.758 89.718 C 205.480 87.102,209.746 84.479,210.237 83.887 C 211.852 81.941,212.642 82.618,235.910 105.887 M323.011 278.089 L 341.713 296.803 340.195 298.481 C 323.303 317.146,272.145 330.878,241.016 325.101 L 237.891 324.521 270.402 291.948 C 288.283 274.033,303.227 259.375,303.611 259.375 C 303.995 259.375,312.725 267.796,323.011 278.089 " stroke="none" fill="#000000" fill-rule="evenodd"></path></g></svg>